<svg width="11" height="11" viewBox="0 0 11 11" fill="none" xmlns="http://www.w3.org/2000/svg">
<path d="M7.81694 3.18306C7.57286 2.93898 7.17714 2.93898 6.93306 3.18306L6.65755 3.45857L7.54143 4.34245L7.81694 4.06694C8.06102 3.82286 8.06102 3.42714 7.81694 3.18306Z" fill="#222222"/>
<path d="M7.28889 4.59499L6.40501 3.71111L3.51195 6.60416C3.3651 6.75102 3.25715 6.93215 3.19786 7.13119L3.00744 7.77044C2.98872 7.83328 3.00594 7.90133 3.05231 7.94769C3.09867 7.99406 3.16672 8.01128 3.22956 7.99256L3.86881 7.80214C4.06785 7.74285 4.24899 7.6349 4.39584 7.48804L7.28889 4.59499Z" fill="#222222"/>
<rect x="0.5" y="0.5" width="10" height="10" rx="5" stroke="#222222"/>
</svg>
