<svg width="53" height="52" viewBox="0 0 53 52" fill="none" xmlns="http://www.w3.org/2000/svg">
<g clip-path="url(#clip0_2657_1654)">
<path d="M36.2859 16.0469C36.4128 15.3611 36.1412 14.6625 35.5846 14.2424C35.0279 13.8222 34.2816 13.7526 33.6568 14.0627L7.83952 26.8738C7.18542 27.1984 6.78493 27.8788 6.81865 28.6083C6.85237 29.3377 7.31394 29.9783 7.9952 30.2411L16.9283 33.6877C17.6953 33.9837 18.5656 33.7353 19.0608 33.0791L24.1317 26.3604C24.7443 25.5487 25.8989 25.3874 26.7106 26C27.5223 26.6126 27.6837 27.7672 27.0711 28.5789L22.0003 35.2976C21.505 35.9538 21.5047 36.8588 21.9996 37.5152L27.7635 45.161C28.2031 45.7441 28.9457 46.0124 29.6564 45.8448C30.3671 45.6772 30.9117 45.1055 31.0445 44.3875L36.2859 16.0469Z" fill="#9D9D9D"/>
</g>
<defs>
<clipPath id="clip0_2657_1654">
<rect width="36.8263" height="36.8263" fill="white" transform="translate(23.106 0.21051) rotate(37.0432)"/>
</clipPath>
</defs>
</svg>
