<svg width="11" height="11" viewBox="0 0 11 11" fill="none" xmlns="http://www.w3.org/2000/svg">
<path fill-rule="evenodd" clip-rule="evenodd" d="M5.5 2C5.71478 2 5.88889 2.17411 5.88889 2.38889V5.11111L8.61111 5.11111C8.82589 5.11111 9 5.28522 9 5.5C9 5.71478 8.82589 5.88889 8.61111 5.88889H5.88889V8.61111C5.88889 8.82589 5.71478 9 5.5 9C5.28522 9 5.11111 8.82589 5.11111 8.61111V5.88889H2.38889C2.17411 5.88889 2 5.71478 2 5.5C2 5.28522 2.17411 5.11111 2.38889 5.11111L5.11111 5.11111V2.38889C5.11111 2.17411 5.28522 2 5.5 2Z" fill="#222222"/>
<rect x="0.5" y="0.5" width="10" height="10" rx="5" stroke="#222222"/>
</svg>
